# xmcd
#
# Track frame offsets: 
#        150
#        14730
#        34490
#        49282
#        66635
#        79125
#        93707
#        109242
#        122642
#        139722
#        157867
#
# Disc length: 2403 seconds
#
# Revision: 3
# Processed by: cddbd v1.5.1PL0 Copyright (c) Steve Scherf et al.
# Submitted via: ExactAudioCopy v0.90b4
#
DISCID=a009610b
DTITLE=Joe Diffie - Mr. Christmas
DYEAR=1995
DGENRE=Christmas
TTITLE0=Mr. Christmas
TTITLE1=The Christmas Song (Chestnuts Roasting On An Open Fire)
TTITLE2=Leroy The Redneck Reindeer
TTITLE3=Have Yourself A Merry Little Christmas
TTITLE4=Let It Snow, Let It Snow, Let It Snow
TTITLE5=Wrap Me In Your Love
TTITLE6=All Because Of A Baby Boy
TTITLE7=Silent Night
TTITLE8=Praise And Alleluia To The Savior
TTITLE9=Magazine Angels
TTITLE10=O Holy Night
EXTD=
EXTT0=
EXTT1=
EXTT2=
EXTT3=
EXTT4=
EXTT5=
EXTT6=
EXTT7=
EXTT8=
EXTT9=
EXTT10=
PLAYORDER=
